<svg xmlns="http://www.w3.org/2000/svg" viewBox="0 0 184.2 184.2" enable-background="new 0 0 184.2 184.2"><path fill="#fff" d="M165.1 54.7c.1 1.6.1 3.2.1 4.9 0 49.8-37.9 107.2-107.2 107.2-21.3 0-41.1-6.2-57.7-16.9 2.9.3 5.9.5 9 .5 17.6 0 33.9-6 46.8-16.1-16.5-.4-30.4-11.3-35.2-26.3 2.3.4 4.7.7 7.1.7 3.4 0 6.8-.5 9.9-1.3-17.2-3.5-30.2-18.7-30.2-36.9V70c5.1 2.8 10.9 4.5 17.1 4.7C14.6 67.9 8 56.4 8 43.3c0-6.9 1.9-13.4 5.1-18.9 18.6 22.8 46.3 37.8 77.6 39.3-.6-2.8-1-5.6-1-8.6 0-20.8 16.9-37.7 37.7-37.7 10.8 0 20.6 4.6 27.5 11.9 8.6-1.7 16.6-4.8 23.9-9.1C176 29 170 36.4 162.2 41c7.6-.9 14.9-2.9 21.6-5.9-5 7.6-11.3 14.3-18.7 19.6z"/></svg>