<svg xmlns="http://www.w3.org/2000/svg" viewBox="0 0 184.2 184.2" enable-background="new 0 0 184.2 184.2"><path fill-rule="evenodd" clip-rule="evenodd" fill="#fff" d="M23.8.2h136.7c13 0 23.6 10.6 23.6 23.6v136.7c0 13-10.6 23.6-23.6 23.6H23.8c-13 0-23.6-10.6-23.6-23.6V23.8C.2 10.8 10.8.2 23.8.2zm110.3 20.4c-4.6 0-8.3 3.7-8.3 8.3v19.8c0 4.6 3.7 8.3 8.3 8.3h20.8c4.6 0 8.3-3.7 8.3-8.3V28.9c0-4.6-3.7-8.3-8.3-8.3h-20.8zm29.2 57.3h-16.2c1.5 5 2.4 10.3 2.4 15.8 0 30.6-25.6 55.4-57.1 55.4-31.6 0-57.1-24.8-57.1-55.4 0-5.5.8-10.8 2.4-15.8H20.6v77.7c0 4 3.3 7.3 7.3 7.3h128c4 0 7.3-3.3 7.3-7.3V77.9h.1zm-71-22c-20.4 0-36.9 16-36.9 35.8 0 19.8 16.5 35.8 36.9 35.8s36.9-16 36.9-35.8c0-19.8-16.5-35.8-36.9-35.8z"/></svg>