<svg xmlns="http://www.w3.org/2000/svg" viewBox="0 0 60 60" enable-background="new 0 0 60 60"><style type="text/css">.st0{fill:none;stroke:#FFFFFF;stroke-width:2;stroke-linecap:round;stroke-linejoin:round;stroke-miterlimit:10;}</style><circle class="st0" cx="38.8" cy="21.2" r="20.2"/><path class="st0" d="M26.3 37h-19C4 37 1 39.5 1 43s3 6 6 6h44c2.8 0 5.5 2.2 5.5 5s-2.7 5-5.5 5H26"/><circle class="st0" cx="38.8" cy="21.2" r="3.8"/><path class="st0" d="M42.2 13.1l2.4-5.8C41 6 36.9 5.7 33 7.3l2.4 5.8c2.3-1 4.7-.9 6.8 0zM31.3 17.8L25 15.4c-1.3 3.6-1.7 7.7-.1 11.6l6.1-2.4c-1-2.3-1-4.7.3-6.8zM35.4 28.7L33 35c3.6 1.3 7.7 1.7 11.6.1L42.2 29c-2.2 1-4.7 1-6.8-.3zM46.4 24.6l6.3 2.4c1.3-3.6 1.7-7.7.1-11.6l-6.1 2.4c.9 2.2 1 4.7-.3 6.8z"/></svg>