<svg xmlns="http://www.w3.org/2000/svg" viewBox="0 0 866.2 395.4" enable-background="new 0 0 866.2 395.4"><style type="text/css">.st0{fill:#FFFFFF;} .st1{fill:#7F896F;}</style><path class="st0" d="M37.9 1.5v85.3c0 14.5-9.7 24.4-27.7 24.4-4.5 0-7.2-.1-10.2-.5V92.5c2.1.2 3.8.5 5.5.5 9.5 0 11.7-2.5 11.7-10.3V1.5h20.7zM50.4 109.8L77.2 1.5h26.5l26.1 108.3H110L104.8 87H76.2l-5.8 22.8h-20zm29.5-41.1h20.5l-10-43.8h-.3L79.9 68.7zM160 77.7c0 12 5.2 15.3 13.5 15.3S187 89.7 187 77.7v-7.2h20.7V75c0 26.7-14.1 36.3-34.2 36.3s-34.2-9.6-34.2-36.3V36.3C139.3 9.6 153.4 0 173.5 0s34.2 9.6 34.2 36.3v.3H187v-3c0-12-5.2-15.3-13.5-15.3S160 21.6 160 33.6v44.1zM222.7 36.3C222.7 9.6 236.8 0 256.9 0s34.2 9.6 34.2 36.3V75c0 26.7-14.1 36.3-34.2 36.3s-34.2-9.6-34.2-36.3V36.3zm20.7 41.4c0 12 5.2 15.3 13.5 15.3s13.5-3.3 13.5-15.3V33.6c0-12-5.2-15.3-13.5-15.3s-13.5 3.3-13.5 15.3v44.1zM307.9 1.5H337c22.2 0 34.9 9.3 34.9 27.9 0 9.4-4.7 17.2-13.3 22.5 11.4 7.2 15.9 13.2 15.9 26.7 0 21.4-14.4 31.2-36.3 31.2h-30.3V1.5zm20.7 42.9h7.2c9.3 0 15.4-5.4 15.4-12.7 0-7.9-4.7-13-14.4-13h-8.2v25.7zm0 48.3h8.7c10.8 0 16.5-6.3 16.5-15.7 0-10.3-7.2-15.4-18-15.4h-7.2v31.1zM465.7 45.1l17.6-43.6h22L475.8 66v43.8h-20.7V66L425.5 1.5h22l18.2 43.6zM514.6 36.3C514.6 9.6 528.7 0 548.8 0S583 9.6 583 36.3V75c0 26.7-14.1 36.3-34.2 36.3s-34.2-9.6-34.2-36.3V36.3zm20.7 41.4c0 12 5.2 15.3 13.5 15.3s13.5-3.3 13.5-15.3V33.6c0-12-5.2-15.3-13.5-15.3s-13.5 3.3-13.5 15.3v44.1zM599.8 109.8V1.5h54v18.3h-33.3v24.9h26.1V63h-26.1v46.8h-20.7zM666.4 109.8V1.5h54v18.3h-33.3v24.9h26.1V63h-26.1v46.8h-20.7zM733 109.8V1.5h56.7v18.3h-36v24.9h27.4V63h-27.4v28.5h37.5v18.3H733zM808 109.8V1.5h56.7v18.3h-36v24.9h27.4V63h-27.4v28.5h37.5v18.3H808zM76.9 153.4c0 4.6 2 5.8 5.1 5.8s5.1-1.3 5.1-5.8v-2.7H95v1.7c0 10.1-5.4 13.8-13 13.8s-13-3.6-13-13.8v-14.7c0-10.1 5.4-13.8 13-13.8s13 3.6 13 13.8v.1h-7.9v-1.1c0-4.6-2-5.8-5.1-5.8s-5.1 1.3-5.1 5.8v16.7zM103.6 137.7c0-10.1 5.4-13.8 13-13.8s13 3.6 13 13.8v14.7c0 10.1-5.4 13.8-13 13.8s-13-3.6-13-13.8v-14.7zm7.8 15.7c0 4.6 2 5.8 5.1 5.8s5.1-1.3 5.1-5.8v-16.8c0-4.6-2-5.8-5.1-5.8s-5.1 1.3-5.1 5.8v16.8zM139.2 165.6v-41.2h11l7.1 27h.1l7.1-27h11v41.2h-6.7v-32.4h-.1l-8.4 32.4h-5.9l-8.4-32.4v32.4h-6.8zM186.4 165.6v-41.2h11.3c9.7 0 14.4 4.6 14.4 12.3s-4.7 12.3-14.4 12.3h-3.5v16.5h-7.8zm7.9-23h4.2c3.9 0 5.8-1.9 5.8-5.8s-1.9-5.8-5.8-5.8h-4.2v11.6zM219.8 137.7c0-10.1 5.4-13.8 13-13.8s13 3.6 13 13.8v14.7c0 10.1-5.4 13.8-13 13.8s-13-3.6-13-13.8v-14.7zm7.9 15.7c0 4.6 2 5.8 5.1 5.8 3.1 0 5.1-1.3 5.1-5.8v-16.8c0-4.6-2-5.8-5.1-5.8-3.1 0-5.1 1.3-5.1 5.8v16.8zM272.5 135.9c-1.3-3.9-3-5.5-5.8-5.5s-4.3 1.7-4.3 4.5c0 6.2 17.6 6.7 17.6 19.6 0 7.1-4.8 11.7-13.1 11.7-6.4 0-11.3-3.5-13.5-11.6l7.8-1.7c.9 5 3.8 6.7 6.1 6.7 2.7 0 4.8-1.8 4.8-4.9 0-7.8-17.6-7.9-17.6-19.4 0-7.1 4.2-11.5 12.4-11.5 7 0 11.3 4.2 12.7 10l-7.1 2.1zM289.6 165.6v-41.2h21.5v7h-13.7v9.5h10.4v7h-10.4v10.8h14.3v7h-22.1zM339.4 165.6l-6.8-16.8h-3.8v16.8H321v-41.2h11.4c9.5 0 14 4.6 14 12.3 0 5.1-1.8 8.8-6.2 10.5l7.8 18.4h-8.6zm-10.6-23.2h4c3.5 0 5.6-1.7 5.6-5.7s-2.1-5.7-5.6-5.7h-4v11.4zM374.2 165.6v-41.2h20.5v7H382v9.5h9.9v7H382v17.8h-7.8zM401.7 137.7c0-10.1 5.4-13.8 13-13.8s13 3.6 13 13.8v14.7c0 10.1-5.4 13.8-13 13.8s-13-3.6-13-13.8v-14.7zm7.8 15.7c0 4.6 2 5.8 5.1 5.8 3.1 0 5.1-1.3 5.1-5.8v-16.8c0-4.6-2-5.8-5.1-5.8-3.1 0-5.1 1.3-5.1 5.8v16.8zM455.4 165.6l-6.8-16.8h-3.8v16.8h-7.9v-41.2h11.4c9.5 0 14 4.6 14 12.3 0 5.1-1.8 8.8-6.2 10.5l7.8 18.4h-8.5zm-10.6-23.2h4c3.5 0 5.6-1.7 5.6-5.7s-2.1-5.7-5.6-5.7h-4v11.4z"/><path class="st1" d="M490.1 165.6l9.1-41.2h20.5l-1.5 7h-12.7l-2.1 9.5h9.9l-1.5 7h-9.9l-3.9 17.8h-7.9zM518.8 165.6l9.1-41.2h7.9l-9.1 41.2h-7.9zM537 165.6l9.1-41.2h7.9l-7.6 34.2h12.7l-1.5 7H537zM565.6 165.6l9.1-41.2h11l1.1 27h.1l13.1-27h11l-9.1 41.2h-6.7l7.2-32.4h-.1l-15.6 32.4h-5.9l-1.2-32.4h-.1l-7.2 32.4h-6.7zM344.4 179.5l-1.5 7h-9.2l-7.6 34.2h-7.9l7.6-34.2h-9.2l1.5-7h26.3zM342.8 220.6l9.1-41.2h21.5l-1.5 7h-13.7l-2.1 9.5h10.4l-1.5 7h-10.4l-2.4 10.8h14.3l-1.5 7h-22.2zM374.1 220.6l9.1-41.2h7.9l-7.6 34.2h12.7l-1.5 7h-20.6zM402.3 220.6l9.1-41.2H433l-1.5 7h-13.7l-2.1 9.5h10.4l-1.5 7h-10.4l-2.4 10.8H426l-1.5 7h-22.2zM440.1 179.5h7.8l.7 29.4h.1l13.7-29.4h7.7l-19.6 41.2h-9l-1.4-41.2zM468.6 220.6l9.1-41.2h7.9l-9.1 41.2h-7.9zM510.9 190.9c-.5-3.9-1.8-5.5-4.5-5.5-2.8 0-4.7 1.7-5.3 4.5-1.4 6.2 16.1 6.7 13.2 19.6-1.6 7.1-7.4 11.7-15.7 11.7-6.4 0-10.6-3.5-10.9-11.6l8.1-1.7c-.2 5 2.3 6.7 4.6 6.7 2.7 0 5.2-1.8 5.9-4.9 1.7-7.8-15.8-7.9-13.3-19.4 1.6-7.1 6.8-11.5 14.9-11.5 7 0 10.4 4.2 10.4 10l-7.4 2.1zM521.9 220.6l9.1-41.2h7.9l-9.1 41.2h-7.9zM545.6 192.7c2.2-10.1 8.4-13.8 16.1-13.8s12.2 3.6 9.9 13.8l-3.3 14.7c-2.2 10.1-8.4 13.8-16.1 13.8s-12.2-3.6-9.9-13.8l3.3-14.7zm4.4 15.7c-1 4.6.7 5.8 3.8 5.8 3.1 0 5.4-1.3 6.4-5.8l3.7-16.8c1-4.6-.7-5.8-3.8-5.8-3.1 0-5.4 1.3-6.4 5.8l-3.7 16.8zM575.1 220.6l9.1-41.2h8.6l5.5 24.4h.1l5.4-24.4h7.2l-9.1 41.2h-7.5l-6.1-26.6h-.1l-5.9 26.6h-7.2zM752.9 244.1c-24.7 11.6-57.4 25-64.6 29.4 28.7 1.5 44.6 25.4 44.6 49 0 41-36.3 73-83.5 73-36.3 0-71.5-18.9-83.5-48.3-10.2 2.5-17.1 3.3-22.9 3.3-31.6 0-58.1-22.5-58.1-49.4 0-13.8 6.9-24 17.1-24.7-.4 5.8-.7 10.9-.7 15.2 0 27.2 19.2 49 43.6 49 4.7 0 10.9-.7 17.4-1.8-2.5-12-3.3-19.6-3.3-26.5 0-46.5 32.7-83.9 80.2-83.9-10.2-13.8-12.7-20-12.7-33.8 0-34.1 28.7-59.5 67.9-59.5 30.9 0 55.9 17.8 55.9 39.6 0 15.6-14.2 30.1-30.1 30.1-13.1 0-20.3-5.1-27.6-18.5l5.8-.7c6.9 9.8 12.7 13.4 22.1 13.4 12.3 0 24-11.3 24-24.3 0-14.9-13.4-25.4-31.9-25.4-30.1 0-55.9 25.4-55.9 55.9 0 14.9 2.9 23.6 20 35.6l1.1 4c-7.3-1.1-13.4-1.5-18.5-1.5-30.1 0-62.4 34.1-57.7 78.4 13.4-8.7 27.6-13.8 27.6-13.8 2.2-24.7 30.5-45.7 73-59.2 71.9-22.1 88.6-32.7 88.6-56.3 0-8.7-1.8-13.1-9.4-23.2l2.5-2.5c10.5 10.2 13.4 15.6 13.4 26.1-.1 19.3-17.9 38.5-44.4 51.3zm-70.4 36.6c-14.2 0-21.1 4.7-32.3 20.7 11.3-2.5 15.2-3.6 20.7-3.6 17.1 0 31.9 13.8 31.9 29.4 0 14.5-13.4 25.8-31.2 25.8-20 0-41-12.7-42.1-38.1 0 0-15.6 7.3-26.5 15.2 4 26.9 31.9 53.7 62.1 53.7 32.7 0 60.3-28 60.3-61-.1-23.9-18.9-42.1-42.9-42.1zm-12.7 22.5c-8 0-14.9 2.9-22.5 5.8-1.5 4.7-1.8 8.7-1.8 12.7 0 15.2 11.3 25.4 26.5 25.4 12.3 0 22.5-9.8 22.5-21.4 0-12.7-10.9-22.5-24.7-22.5z"/></svg>