<svg xmlns="http://www.w3.org/2000/svg" viewBox="0 0 350.2 35" enable-background="new 0 0 350.2 35"><style type="text/css">.st0{fill:url(#SVGID_1_);}</style><linearGradient id="SVGID_1_" gradientUnits="userSpaceOnUse" x1="298.973" y1="17.51" x2="0" y2="17.51"><stop offset="0" stop-color="#7F896F"/><stop offset="1" stop-color="#335659"/></linearGradient><path class="st0" d="M1.8 35H0v-1.7c.7 0 1.3.1 1.9.1 1 0 1.7-.1 2.3-.3.6-.2 1-.5 1.4-1 .4-.5.6-1.2.8-2.1.1-.9.2-2.1.2-3.6V.5h2.1v25.9c0 1.2-.1 2.3-.2 3.2s-.3 1.7-.6 2.3c-.3.6-.6 1.2-.9 1.6-.4.4-.8.7-1.3.9-.5.2-1.1.4-1.7.5-.7.1-1.4.1-2.2.1zm14.6-6.1L26.7.5h2.6l10.3 28.4h-2.2l-2.8-7.8H21.5l-2.8 7.8h-2.3zm5.6-9.2h12.1l-3-8.7-3-8.7L25 11l-3 8.7zm36.8 9.7c-4.2 0-7.5-1.3-10-3.8-2.5-2.6-3.7-6-3.7-10.3 0-4.6 1.3-8.3 3.8-11.1C51.4 1.4 54.8 0 59.1 0c3.3 0 6.1.9 8.2 2.7L66.4 4c-2-1.6-4.5-2.4-7.3-2.4-3.6 0-6.5 1.2-8.6 3.7-2.1 2.5-3.2 5.7-3.2 9.9 0 3.8 1 6.8 3.1 9 2.1 2.3 4.9 3.4 8.4 3.4 3.1 0 5.9-.8 8.4-2.4l.7 1.5c-2.8 1.8-5.8 2.7-9.1 2.7zm28.7-.1c-4 0-7.3-1.3-9.6-3.9-2.4-2.6-3.6-6.2-3.6-10.6 0-4.5 1.2-8.1 3.6-10.8 2.4-2.7 5.6-4 9.7-4 4 0 7.2 1.3 9.6 4 2.4 2.7 3.6 6.3 3.6 10.8 0 4.4-1.2 7.9-3.6 10.6-2.5 2.6-5.7 3.9-9.7 3.9zm0-1.6c3.4 0 6-1.2 8-3.5s3-5.4 3-9.4-1-7.2-3-9.6c-2-2.4-4.7-3.6-8-3.6-3.4 0-6.1 1.2-8.1 3.6-2 2.4-3 5.6-3 9.6 0 3.9 1 7 3 9.4 2.1 2.3 4.7 3.5 8.1 3.5zm21.7 1.2V.5h8.1c6.7 0 10 2.3 10 7 0 4.1-1.8 6.3-5.5 6.7 2.2.2 3.9.9 5.1 2.1 1.2 1.2 1.8 3 1.8 5.1 0 2.5-.8 4.3-2.5 5.6-1.7 1.3-4.1 1.9-7.3 1.9h-9.7zm2.1-1.7h7.7c2.5 0 4.4-.5 5.7-1.5 1.3-1 1.9-2.4 1.9-4.4 0-2.1-.6-3.7-1.9-4.8-1.3-1-3.4-1.6-6.5-1.6h-6.9v12.3zm0-13.8h6.8c2.5 0 4.3-.5 5.4-1.5 1.1-1 1.6-2.5 1.6-4.5 0-3.5-2.6-5.3-7.9-5.3h-5.9v11.3zm46.6 15.5V17.4L148.5.5h2.1l8.3 15.1L167.4.5h2.1L160 17.3v11.6h-2.1zm30.6.4c-4 0-7.3-1.3-9.6-3.9-2.4-2.6-3.6-6.2-3.6-10.6 0-4.5 1.2-8.1 3.6-10.8 2.4-2.7 5.6-4 9.7-4 4 0 7.2 1.3 9.6 4 2.4 2.7 3.6 6.3 3.6 10.8 0 4.4-1.2 7.9-3.6 10.6-2.5 2.6-5.7 3.9-9.7 3.9zm0-1.6c3.4 0 6-1.2 8-3.5s3-5.4 3-9.4-1-7.2-3-9.6c-2-2.4-4.7-3.6-8-3.6-3.4 0-6.1 1.2-8.1 3.6-2 2.4-3 5.6-3 9.6 0 3.9 1 7 3 9.4 2 2.3 4.7 3.5 8.1 3.5zm21.7 1.2V.5h15.2v1.7h-13.1v11.5h12v1.7h-12v13.5h-2.1zm23.3 0V.5h15.2v1.7h-13.1v11.5h12v1.7h-12v13.5h-2.1zm23.3 0V.5h15.8v1.7h-13.7v11.4h12.9v1.7h-13v12h14.3V29h-16.3zm25.8 0V.5h15.8v1.7h-13.7v11.4h12.9v1.7h-13v12H299V29h-16.4z"/></svg>