<svg xmlns="http://www.w3.org/2000/svg" viewBox="0 0 350.2 35" enable-background="new 0 0 350.2 35"><style type="text/css">.st0{fill:url(#SVGID_1_);}</style><linearGradient id="SVGID_1_" gradientUnits="userSpaceOnUse" x1="129.484" y1="14.219" x2="0" y2="14.219"><stop offset="0" stop-color="#7F896F"/><stop offset="1" stop-color="#335659"/></linearGradient><path class="st0" d="M0 28.4V0h2.7l9.2 21.4 1.7 4.3 1.8-4.3L25.1 0h2.3v28.4h-2v-25l-1.1 2.8-10 22.1H13l-9.6-22L2 2.7v25.8H0zm38.1 0V0h15.8v1.7H40.2v11.4h12.9v1.7h-13v12h14.3v1.7H38.1zm25.8 0V0h7.3c5 0 8.9 1.2 11.5 3.7 2.6 2.5 3.9 6.1 3.9 10.8 0 4.6-1.3 8-3.8 10.4-2.5 2.4-6.3 3.5-11.2 3.5h-7.7zm2.1-1.6h5.6c4.2 0 7.4-1 9.6-3.1 2.2-2.1 3.3-5.1 3.3-9.1 0-4.2-1.1-7.4-3.4-9.6-2.3-2.2-5.5-3.3-9.9-3.3H66v25.1zm30 1.6V0h2.1v28.4H96zm10.2 0L116.5 0h2.6l10.3 28.4h-2.2l-2.8-7.8h-13.2l-2.8 7.8h-2.2zm5.7-9.2H124l-3-8.7-3-8.7-3 8.7-3.1 8.7z"/></svg>