<svg xmlns="http://www.w3.org/2000/svg" viewBox="0 0 350.2 35" enable-background="new 0 0 350.2 35"><style type="text/css">.st0{fill:url(#SVGID_1_);}</style><linearGradient id="SVGID_1_" gradientUnits="userSpaceOnUse" x1="322.417" y1="14.678" x2="27.799" y2="14.678"><stop offset="0" stop-color="#7F896F"/><stop offset="1" stop-color="#335659"/></linearGradient><path class="st0" d="M41.9 29.3c-4.3 0-7.8-1.3-10.3-3.8-2.5-2.6-3.8-6-3.8-10.4 0-4.6 1.3-8.3 3.9-11 2.6-2.7 6-4.1 10.4-4.1h.2c3.3 0 6.2.9 8.9 2.9l-.9 1.5c-2.7-1.8-5.5-2.7-8.2-2.7-3.7 0-6.6 1.2-8.8 3.7-2.2 2.4-3.3 5.7-3.3 9.8 0 3.8 1.1 6.9 3.2 9.1 2.2 2.3 5.1 3.4 8.8 3.4 1.5 0 2.9-.1 4.4-.3 1.5-.2 2.7-.6 3.7-1v-10h-8v-1.7H52v12.7c-2.8 1.3-6.1 1.9-10.1 1.9zm19.7-.4V.5h15.8v1.7H63.7v11.4h12.9v1.7h-13v12H78V29H61.6zm31.1 0V2.2h-9.5V.5h21.1v1.7h-9.5V29h-2.1zm32.2 0V.5h2.1v28.4h-2.1zm13.2 0V.5h2.1l15.3 21.9 2.5 3.8V.5h2.1v28.4H158L142.3 6.7l-2.1-3.2v25.4h-2.1zm51.7 0V2.2h-9.5V.5h21.1v1.7H192V29h-2.2zm29.2.4c-4 0-7.3-1.3-9.6-3.9-2.4-2.6-3.6-6.2-3.6-10.6 0-4.5 1.2-8.1 3.6-10.8 2.4-2.7 5.6-4 9.7-4 4 0 7.2 1.3 9.6 4 2.4 2.7 3.6 6.3 3.6 10.8 0 4.4-1.2 7.9-3.6 10.6-2.5 2.6-5.7 3.9-9.7 3.9zm0-1.6c3.4 0 6-1.2 8-3.5s3-5.4 3-9.4-1-7.2-3-9.6c-2-2.4-4.7-3.6-8-3.6-3.4 0-6.1 1.2-8.1 3.6-2 2.4-3 5.6-3 9.6 0 3.9 1 7 3 9.4 2.1 2.3 4.8 3.5 8.1 3.5zm31.6 1.6c-3.6 0-6.3-.9-8.1-2.7-1.8-1.8-2.8-4.4-2.8-7.8V.5h2.1V19c0 2.8.7 5 2.2 6.4 1.5 1.5 3.7 2.2 6.5 2.2s5-.7 6.5-2.2c1.5-1.5 2.2-3.6 2.2-6.4V.5h2.1v18.4c0 3.4-1 6-2.8 7.8-1.7 1.8-4.3 2.6-7.9 2.6zm32.5.1c-4.2 0-7.5-1.3-10-3.8s-3.7-6-3.7-10.3c0-4.6 1.3-8.3 3.8-11.1 2.5-2.8 5.9-4.1 10.2-4.1 3.3 0 6.1.9 8.2 2.7l-.9 1.2c-2-1.6-4.5-2.4-7.3-2.4-3.6 0-6.5 1.2-8.6 3.7-2.1 2.5-3.2 5.7-3.2 9.9 0 3.8 1 6.8 3.1 9 2.1 2.3 4.9 3.4 8.4 3.4 3.1 0 5.9-.8 8.4-2.4l.7 1.5c-2.8 1.8-5.9 2.7-9.1 2.7zm17.6-.5V.5h2.2v13.1h17.5V.5h2v28.4h-2.1V15.3h-17.5V29h-2.1z"/></svg>