<svg xmlns="http://www.w3.org/2000/svg" viewBox="0 0 350.2 35" enable-background="new 0 0 350.2 35"><style type="text/css">.st0{fill:url(#SVGID_1_);}</style><linearGradient id="SVGID_1_" gradientUnits="userSpaceOnUse" x1="294.824" y1="14.668" x2="0" y2="14.668"><stop offset="0" stop-color="#7F896F"/><stop offset="1" stop-color="#335659"/></linearGradient><path class="st0" d="M0 28.9V.5h15.2v1.7H2.1v11.5h12v1.7h-12v13.5H0zm23.6 0V.5h2.1v28.4h-2.1zm13.3 0V.5H39v26.8h13.3V29H36.9zm22.4 0V.5H62l9.2 21.4 1.7 4.3 1.8-4.3L84.3.5h2.3v28.4h-2v-25l-1.1 2.8-10 22.1h-1.2l-9.7-22-1.3-3.6V29h-2zm49.1.4c-4 0-7.3-1.3-9.6-3.9-2.4-2.6-3.6-6.2-3.6-10.6 0-4.5 1.2-8.1 3.6-10.8 2.4-2.7 5.6-4 9.7-4 4 0 7.2 1.3 9.6 4 2.4 2.7 3.6 6.3 3.6 10.8 0 4.4-1.2 7.9-3.6 10.6-2.5 2.6-5.7 3.9-9.7 3.9zm0-1.6c3.4 0 6-1.2 8-3.5s3-5.4 3-9.4-1-7.2-3-9.6c-2-2.4-4.7-3.6-8-3.6-3.4 0-6.1 1.2-8.1 3.6-2 2.4-3 5.6-3 9.6 0 3.9 1 7 3 9.4 2 2.3 4.7 3.5 8.1 3.5zm33.6 1.6c-4.3 0-7.8-1.3-10.3-3.8-2.5-2.6-3.8-6-3.8-10.4 0-4.6 1.3-8.3 3.9-11 2.6-2.7 6.1-4.1 10.4-4.1h.2c3.3 0 6.2.9 8.9 2.9l-.9 1.5c-2.7-1.8-5.5-2.7-8.2-2.7-3.7 0-6.6 1.2-8.8 3.7S130 11 130 15.1c0 3.8 1.1 6.9 3.2 9.1s5.1 3.4 8.8 3.4c1.5 0 2.9-.1 4.4-.3 1.5-.2 2.7-.6 3.7-1v-10h-8v-1.7h9.9v12.7c-2.7 1.4-6.1 2-10 2zm19.6-.4V.5h8.5c3.3 0 5.7.6 7.2 1.8s2.2 3.1 2.2 5.6c0 2-.5 3.6-1.5 4.9-1 1.3-2.4 2-4.3 2.2.4.1.8.1 1.1.2l.9.3c.3.1.5.3.7.4.2.1.4.3.6.6.2.3.3.5.5.7s.3.5.4.9.3.8.4 1.1c.1.3.3.7.5 1.3l2.9 8.4h-2l-2.8-8c-.3-.8-.5-1.4-.7-1.8-.2-.4-.4-.9-.6-1.3s-.5-.8-.7-1c-.2-.2-.5-.4-.9-.6-.4-.2-.7-.3-1.2-.4-.4-.1-.9-.1-1.6-.1h-7.5v13.1h-2.1zm2.2-14.8h6.9c2.3 0 4-.5 5.2-1.6 1.1-1 1.7-2.6 1.7-4.7s-.6-3.6-1.8-4.5c-1.2-.9-3.1-1.3-5.6-1.2h-6.3v12zm23.6 14.8L197.8.5h2.6l10.3 28.4h-2.2l-2.8-7.8h-13.2l-2.8 7.8h-2.3zm5.7-9.2h12.1l-3-8.7-3-8.7-3 8.7-3.1 8.7zm25.3 9.2V.5h8.4c3.4 0 5.8.6 7.3 1.7 1.5 1.2 2.3 3 2.3 5.6 0 2.6-.8 4.5-2.3 5.6-1.5 1.2-4 1.7-7.3 1.7h-6.3v13.7h-2.1zm2.1-15.3h6.3c2.8 0 4.8-.4 5.9-1.3 1.1-.9 1.7-2.3 1.7-4.4 0-2.1-.6-3.6-1.8-4.5s-3.1-1.3-5.8-1.2h-6.3v11.4zm23.7 15.3V.5h2.2v13.1h17.5V.5h2v28.4h-2.1V15.3h-17.5V29h-2.1zm39 0V17.4L273.8.5h2.1l8.3 15.1L292.7.5h2.1l-9.5 16.8v11.6h-2.1z"/></svg>